<mxfile host="app.diagrams.net" modified="2020-09-13T13:51:39.259Z" agent="5.0 (Macintosh; Intel Mac OS X 10_15_6) AppleWebKit/537.36 (KHTML, like Gecko) Chrome/84.0.4147.135 Safari/537.36" etag="5nWjm6zVkP7smumleC6G" version="13.6.10" type="github">
  <diagram id="J-s9CPOLKSuH-jEuMoqE" name="Page-1">
    <mxGraphModel dx="1646" dy="802" grid="1" gridSize="10" guides="1" tooltips="1" connect="1" arrows="1" fold="1" page="1" pageScale="1" pageWidth="850" pageHeight="1100" math="0" shadow="0">
      <root>
        <mxCell id="0" />
        <mxCell id="1" parent="0" />
        <mxCell id="s4XNvt-bEmriD89gC2K7-1" value="vm" style="shape=folder;fontStyle=1;spacingTop=10;tabWidth=40;tabHeight=14;tabPosition=left;html=1;" vertex="1" parent="1">
          <mxGeometry x="390" y="70" width="70" height="50" as="geometry" />
        </mxCell>
        <mxCell id="s4XNvt-bEmriD89gC2K7-9" style="edgeStyle=orthogonalEdgeStyle;rounded=0;orthogonalLoop=1;jettySize=auto;html=1;entryX=0.25;entryY=1;entryDx=0;entryDy=0;entryPerimeter=0;exitX=0;exitY=0;exitDx=20;exitDy=0;exitPerimeter=0;" edge="1" parent="1" source="s4XNvt-bEmriD89gC2K7-2" target="s4XNvt-bEmriD89gC2K7-1">
          <mxGeometry relative="1" as="geometry" />
        </mxCell>
        <mxCell id="s4XNvt-bEmriD89gC2K7-2" value="classpath" style="shape=folder;fontStyle=1;spacingTop=10;tabWidth=40;tabHeight=14;tabPosition=left;html=1;" vertex="1" parent="1">
          <mxGeometry x="280" y="250" width="70" height="50" as="geometry" />
        </mxCell>
        <mxCell id="s4XNvt-bEmriD89gC2K7-7" style="edgeStyle=orthogonalEdgeStyle;rounded=0;orthogonalLoop=1;jettySize=auto;html=1;entryX=0.5;entryY=1;entryDx=0;entryDy=0;entryPerimeter=0;exitX=0;exitY=0;exitDx=20;exitDy=0;exitPerimeter=0;" edge="1" parent="1" source="s4XNvt-bEmriD89gC2K7-3" target="s4XNvt-bEmriD89gC2K7-1">
          <mxGeometry relative="1" as="geometry" />
        </mxCell>
        <mxCell id="s4XNvt-bEmriD89gC2K7-3" value="classfile" style="shape=folder;fontStyle=1;spacingTop=10;tabWidth=40;tabHeight=14;tabPosition=left;html=1;" vertex="1" parent="1">
          <mxGeometry x="400" y="250" width="70" height="50" as="geometry" />
        </mxCell>
        <mxCell id="s4XNvt-bEmriD89gC2K7-8" style="edgeStyle=orthogonalEdgeStyle;rounded=0;orthogonalLoop=1;jettySize=auto;html=1;entryX=0.75;entryY=1;entryDx=0;entryDy=0;entryPerimeter=0;exitX=0;exitY=0;exitDx=20;exitDy=0;exitPerimeter=0;" edge="1" parent="1" source="s4XNvt-bEmriD89gC2K7-4" target="s4XNvt-bEmriD89gC2K7-1">
          <mxGeometry relative="1" as="geometry" />
        </mxCell>
        <mxCell id="s4XNvt-bEmriD89gC2K7-4" value="rtda" style="shape=folder;fontStyle=1;spacingTop=10;tabWidth=40;tabHeight=14;tabPosition=left;html=1;" vertex="1" parent="1">
          <mxGeometry x="510" y="250" width="70" height="50" as="geometry" />
        </mxCell>
        <mxCell id="s4XNvt-bEmriD89gC2K7-6" style="edgeStyle=orthogonalEdgeStyle;rounded=0;orthogonalLoop=1;jettySize=auto;html=1;entryX=0.5;entryY=1;entryDx=0;entryDy=0;entryPerimeter=0;" edge="1" parent="1" source="s4XNvt-bEmriD89gC2K7-5" target="s4XNvt-bEmriD89gC2K7-4">
          <mxGeometry relative="1" as="geometry" />
        </mxCell>
        <mxCell id="s4XNvt-bEmriD89gC2K7-5" value="heap" style="shape=folder;fontStyle=1;spacingTop=10;tabWidth=40;tabHeight=14;tabPosition=left;html=1;" vertex="1" parent="1">
          <mxGeometry x="510" y="330" width="70" height="50" as="geometry" />
        </mxCell>
        <mxCell id="s4XNvt-bEmriD89gC2K7-11" value="go 的代码存放在这里" style="text;html=1;strokeColor=none;fillColor=none;align=center;verticalAlign=middle;whiteSpace=wrap;rounded=0;" vertex="1" parent="1">
          <mxGeometry x="460" y="80" width="140" height="40" as="geometry" />
        </mxCell>
        <mxCell id="s4XNvt-bEmriD89gC2K7-12" value="路径模块：寻找class文件路径" style="text;html=1;strokeColor=none;fillColor=none;align=center;verticalAlign=middle;whiteSpace=wrap;rounded=0;" vertex="1" parent="1">
          <mxGeometry x="150" y="265" width="120" height="35" as="geometry" />
        </mxCell>
        <mxCell id="s4XNvt-bEmriD89gC2K7-13" value="存放各种类文件结构" style="text;html=1;strokeColor=none;fillColor=none;align=center;verticalAlign=middle;whiteSpace=wrap;rounded=0;" vertex="1" parent="1">
          <mxGeometry x="405" y="300" width="65" height="30" as="geometry" />
        </mxCell>
        <mxCell id="s4XNvt-bEmriD89gC2K7-15" value="运行时数据区，例如线程，栈帧" style="text;html=1;strokeColor=none;fillColor=none;align=center;verticalAlign=middle;whiteSpace=wrap;rounded=0;" vertex="1" parent="1">
          <mxGeometry x="590" y="272.5" width="120" height="7.5" as="geometry" />
        </mxCell>
        <mxCell id="s4XNvt-bEmriD89gC2K7-16" value="类，对象相关的结构体" style="text;html=1;strokeColor=none;fillColor=none;align=center;verticalAlign=middle;whiteSpace=wrap;rounded=0;" vertex="1" parent="1">
          <mxGeometry x="480" y="390" width="130" height="20" as="geometry" />
        </mxCell>
      </root>
    </mxGraphModel>
  </diagram>
</mxfile>
